<?xml version="1.0" encoding="UTF-8" standalone="no"?>
<!DOCTYPE svg PUBLIC "-//W3C//DTD SVG 1.1//EN"
 "http://www.w3.org/Graphics/SVG/1.1/DTD/svg11.dtd">
<!-- Generated by graphviz version 2.40.1 (20161225.0304)
 -->
<!-- Title: %3 Pages: 1 -->
<svg width="316pt" height="332pt"
 viewBox="0.00 0.00 315.83 332.00" xmlns="http://www.w3.org/2000/svg" xmlns:xlink="http://www.w3.org/1999/xlink">
<g id="graph0" class="graph" transform="scale(1 1) rotate(0) translate(4 328)">
<title>%3</title>
<polygon fill="#ffffff" stroke="transparent" points="-4,4 -4,-328 311.8297,-328 311.8297,4 -4,4"/>
<!-- o&#45;colors -->
<g id="node1" class="node">
<title>o&#45;colors</title>
<ellipse fill="none" stroke="#000000" cx="167.187" cy="-306" rx="39.1713" ry="18"/>
<text text-anchor="middle" x="167.187" y="-301.8" font-family="Times,serif" font-size="14.00" fill="#000000">o&#45;colors</text>
</g>
<!-- o&#45;typography -->
<g id="node2" class="node">
<title>o&#45;typography</title>
<ellipse fill="none" stroke="#000000" cx="167.187" cy="-234" rx="57.5065" ry="18"/>
<text text-anchor="middle" x="167.187" y="-229.8" font-family="Times,serif" font-size="14.00" fill="#000000">o&#45;typography</text>
</g>
<!-- o&#45;colors&#45;&gt;o&#45;typography -->
<g id="edge1" class="edge">
<title>o&#45;colors&#45;&gt;o&#45;typography</title>
<path fill="none" stroke="#000000" d="M167.187,-287.8314C167.187,-287.8314 167.187,-262.4133 167.187,-262.4133"/>
<polygon fill="#000000" stroke="#000000" points="170.6871,-262.4132 167.187,-252.4133 163.6871,-262.4133 170.6871,-262.4132"/>
</g>
<!-- o&#45;buttons -->
<g id="node3" class="node">
<title>o&#45;buttons</title>
<ellipse fill="none" stroke="#000000" cx="153.187" cy="-162" rx="43.5319" ry="18"/>
<text text-anchor="middle" x="153.187" y="-157.8" font-family="Times,serif" font-size="14.00" fill="#000000">o&#45;buttons</text>
</g>
<!-- o&#45;colors&#45;&gt;o&#45;buttons -->
<g id="edge2" class="edge">
<title>o&#45;colors&#45;&gt;o&#45;buttons</title>
<path fill="none" stroke="#000000" d="M201.2847,-297C215.2701,-297 228.242,-297 228.242,-297 228.242,-297 228.242,-168 228.242,-168 228.242,-168 204.2282,-168 204.2282,-168"/>
<polygon fill="#000000" stroke="#000000" points="204.2282,-164.5001 194.2282,-168 204.2281,-171.5001 204.2282,-164.5001"/>
</g>
<!-- o&#45;table -->
<g id="node4" class="node">
<title>o&#45;table</title>
<ellipse fill="none" stroke="#000000" cx="200.187" cy="-90" rx="34.8198" ry="18"/>
<text text-anchor="middle" x="200.187" y="-85.8" font-family="Times,serif" font-size="14.00" fill="#000000">o&#45;table</text>
</g>
<!-- o&#45;colors&#45;&gt;o&#45;table -->
<g id="edge4" class="edge">
<title>o&#45;colors&#45;&gt;o&#45;table</title>
<path fill="none" stroke="#000000" d="M206.4778,-306C219.877,-306 231.5443,-306 231.5443,-306 231.5443,-306 231.5443,-107.6876 231.5443,-107.6876"/>
<polygon fill="#000000" stroke="#000000" points="235.0444,-107.6875 231.5443,-97.6876 228.0444,-107.6876 235.0444,-107.6875"/>
</g>
<!-- ft.com&#39;s article page -->
<g id="node5" class="node">
<title>ft.com&#39;s article page</title>
<ellipse fill="none" stroke="#000000" cx="81.187" cy="-18" rx="81.3745" ry="18"/>
<text text-anchor="middle" x="81.187" y="-13.8" font-family="Times,serif" font-size="14.00" fill="#000000">ft.com&#39;s article page</text>
</g>
<!-- o&#45;colors&#45;&gt;ft.com&#39;s article page -->
<g id="edge7" class="edge">
<title>o&#45;colors&#45;&gt;ft.com&#39;s article page</title>
<path fill="none" stroke="#000000" d="M127.9701,-306C89.4689,-306 36.4781,-306 36.4781,-306 36.4781,-306 36.4781,-43.0786 36.4781,-43.0786"/>
<polygon fill="#000000" stroke="#000000" points="39.9782,-43.0786 36.4781,-33.0786 32.9782,-43.0787 39.9782,-43.0786"/>
</g>
<!-- an internal tool -->
<g id="node6" class="node">
<title>an internal tool</title>
<ellipse fill="none" stroke="#000000" cx="244.187" cy="-18" rx="63.7855" ry="18"/>
<text text-anchor="middle" x="244.187" y="-13.8" font-family="Times,serif" font-size="14.00" fill="#000000">an internal tool</text>
</g>
<!-- o&#45;colors&#45;&gt;an internal tool -->
<g id="edge12" class="edge">
<title>o&#45;colors&#45;&gt;an internal tool</title>
<path fill="none" stroke="#000000" d="M201.2814,-315C237.4976,-315 289.5839,-315 289.5839,-315 289.5839,-315 289.5839,-40.7617 289.5839,-40.7617"/>
<polygon fill="#000000" stroke="#000000" points="293.084,-40.7617 289.5839,-30.7617 286.084,-40.7618 293.084,-40.7617"/>
</g>
<!-- o&#45;typography&#45;&gt;o&#45;buttons -->
<g id="edge3" class="edge">
<title>o&#45;typography&#45;&gt;o&#45;buttons</title>
<path fill="none" stroke="#000000" d="M153.187,-216.2022C153.187,-216.2022 153.187,-190.0931 153.187,-190.0931"/>
<polygon fill="#000000" stroke="#000000" points="156.6871,-190.0931 153.187,-180.0931 149.6871,-190.0932 156.6871,-190.0931"/>
</g>
<!-- o&#45;typography&#45;&gt;o&#45;table -->
<g id="edge5" class="edge">
<title>o&#45;typography&#45;&gt;o&#45;table</title>
<path fill="none" stroke="#000000" d="M210.8214,-221.7226C210.8214,-221.7226 210.8214,-117.5312 210.8214,-117.5312"/>
<polygon fill="#000000" stroke="#000000" points="214.3215,-117.5312 210.8214,-107.5312 207.3215,-117.5313 214.3215,-117.5312"/>
</g>
<!-- o&#45;typography&#45;&gt;ft.com&#39;s article page -->
<g id="edge8" class="edge">
<title>o&#45;typography&#45;&gt;ft.com&#39;s article page</title>
<path fill="none" stroke="#000000" d="M109.3883,-234C89.8829,-234 72.9562,-234 72.9562,-234 72.9562,-234 72.9562,-46.0445 72.9562,-46.0445"/>
<polygon fill="#000000" stroke="#000000" points="76.4563,-46.0445 72.9562,-36.0445 69.4563,-46.0446 76.4563,-46.0445"/>
</g>
<!-- o&#45;typography&#45;&gt;an internal tool -->
<g id="edge13" class="edge">
<title>o&#45;typography&#45;&gt;an internal tool</title>
<path fill="none" stroke="#000000" d="M225.0494,-234C249.0219,-234 271.3381,-234 271.3381,-234 271.3381,-234 271.3381,-44.5905 271.3381,-44.5905"/>
<polygon fill="#000000" stroke="#000000" points="274.8382,-44.5905 271.3381,-34.5905 267.8382,-44.5905 274.8382,-44.5905"/>
</g>
<!-- o&#45;buttons&#45;&gt;o&#45;table -->
<g id="edge6" class="edge">
<title>o&#45;buttons&#45;&gt;o&#45;table</title>
<path fill="none" stroke="#000000" d="M181.1153,-148.1177C181.1153,-148.1177 181.1153,-115.0826 181.1153,-115.0826"/>
<polygon fill="#000000" stroke="#000000" points="184.6154,-115.0826 181.1153,-105.0826 177.6154,-115.0826 184.6154,-115.0826"/>
</g>
<!-- o&#45;buttons&#45;&gt;ft.com&#39;s article page -->
<g id="edge9" class="edge">
<title>o&#45;buttons&#45;&gt;ft.com&#39;s article page</title>
<path fill="none" stroke="#000000" d="M136.0226,-145.1995C136.0226,-145.1995 136.0226,-41.2961 136.0226,-41.2961"/>
<polygon fill="#000000" stroke="#000000" points="139.5227,-41.2961 136.0226,-31.2961 132.5227,-41.2961 139.5227,-41.2961"/>
</g>
<!-- o&#45;buttons&#45;&gt;an internal tool -->
<g id="edge14" class="edge">
<title>o&#45;buttons&#45;&gt;an internal tool</title>
<path fill="none" stroke="#000000" d="M194.3991,-156C221.9192,-156 253.0923,-156 253.0923,-156 253.0923,-156 253.0923,-46.0411 253.0923,-46.0411"/>
<polygon fill="#000000" stroke="#000000" points="256.5924,-46.0411 253.0923,-36.0411 249.5924,-46.0411 256.5924,-46.0411"/>
</g>
<!-- o&#45;table&#45;&gt;ft.com&#39;s article page -->
<g id="edge11" class="edge">
<title>o&#45;table&#45;&gt;ft.com&#39;s article page</title>
<path fill="none" stroke="#000000" d="M173.036,-78.75C173.036,-58.5 173.036,-18 173.036,-18 173.036,-18 171.9824,-18 171.9824,-18"/>
<polygon fill="#000000" stroke="#000000" points="172.4998,-14.5001 162.4997,-18 172.4997,-21.5001 172.4998,-14.5001"/>
</g>
<!-- o&#45;table&#45;&gt;an internal tool -->
<g id="edge16" class="edge">
<title>o&#45;table&#45;&gt;an internal tool</title>
<path fill="none" stroke="#000000" d="M207.6955,-72.2022C207.6955,-72.2022 207.6955,-43.1594 207.6955,-43.1594"/>
<polygon fill="#000000" stroke="#000000" points="211.1956,-43.1594 207.6955,-33.1594 204.1956,-43.1594 211.1956,-43.1594"/>
</g>
</g>
</svg>
