<?xml version="1.0" encoding="UTF-8" standalone="no"?>
<!DOCTYPE svg PUBLIC "-//W3C//DTD SVG 1.1//EN"
 "http://www.w3.org/Graphics/SVG/1.1/DTD/svg11.dtd">
<!-- Generated by graphviz version 2.40.1 (20161225.0304)
 -->
<!-- Title: %3 Pages: 1 -->
<svg width="298pt" height="332pt"
 viewBox="0.00 0.00 298.43 332.00" xmlns="http://www.w3.org/2000/svg" xmlns:xlink="http://www.w3.org/1999/xlink">
<g id="graph0" class="graph" transform="scale(1 1) rotate(0) translate(4 328)">
<title>%3</title>
<polygon fill="#ffffff" stroke="transparent" points="-4,4 -4,-328 294.4335,-328 294.4335,4 -4,4"/>
<!-- o&#45;colors -->
<g id="node1" class="node">
<title>o&#45;colors</title>
<ellipse fill="none" stroke="#000000" cx="105.9452" cy="-306" rx="39.1713" ry="18"/>
<text text-anchor="middle" x="105.9452" y="-301.8" font-family="Times,serif" font-size="14.00" fill="#000000">o&#45;colors</text>
</g>
<!-- o&#45;typography -->
<g id="node2" class="node">
<title>o&#45;typography</title>
<ellipse fill="none" stroke="#000000" cx="105.9452" cy="-234" rx="57.5065" ry="18"/>
<text text-anchor="middle" x="105.9452" y="-229.8" font-family="Times,serif" font-size="14.00" fill="#000000">o&#45;typography</text>
</g>
<!-- o&#45;colors&#45;&gt;o&#45;typography -->
<g id="edge1" class="edge">
<title>o&#45;colors&#45;&gt;o&#45;typography</title>
<path fill="none" stroke="#000000" d="M105.9452,-287.8314C105.9452,-287.8314 105.9452,-262.4133 105.9452,-262.4133"/>
<polygon fill="#000000" stroke="#000000" points="109.4453,-262.4132 105.9452,-252.4133 102.4453,-262.4133 109.4453,-262.4132"/>
</g>
<!-- o&#45;buttons -->
<g id="node3" class="node">
<title>o&#45;buttons</title>
<ellipse fill="none" stroke="#000000" cx="196.9452" cy="-162" rx="43.5319" ry="18"/>
<text text-anchor="middle" x="196.9452" y="-157.8" font-family="Times,serif" font-size="14.00" fill="#000000">o&#45;buttons</text>
</g>
<!-- o&#45;colors&#45;&gt;o&#45;buttons -->
<g id="edge2" class="edge">
<title>o&#45;colors&#45;&gt;o&#45;buttons</title>
<path fill="none" stroke="#000000" d="M139.8386,-297C167.5163,-297 202.0796,-297 202.0796,-297 202.0796,-297 202.0796,-189.927 202.0796,-189.927"/>
<polygon fill="#000000" stroke="#000000" points="205.5797,-189.9269 202.0796,-179.927 198.5797,-189.927 205.5797,-189.9269"/>
</g>
<!-- o&#45;table -->
<g id="node4" class="node">
<title>o&#45;table</title>
<ellipse fill="none" stroke="#000000" cx="196.9452" cy="-90" rx="34.8198" ry="18"/>
<text text-anchor="middle" x="196.9452" y="-85.8" font-family="Times,serif" font-size="14.00" fill="#000000">o&#45;table</text>
</g>
<!-- o&#45;colors&#45;&gt;o&#45;table -->
<g id="edge4" class="edge">
<title>o&#45;colors&#45;&gt;o&#45;table</title>
<path fill="none" stroke="#000000" d="M145.3727,-306C192.6059,-306 265.4473,-306 265.4473,-306 265.4473,-306 265.4473,-96 265.4473,-96 265.4473,-96 239.9924,-96 239.9924,-96"/>
<polygon fill="#000000" stroke="#000000" points="239.9924,-92.5001 229.9924,-96 239.9923,-99.5001 239.9924,-92.5001"/>
</g>
<!-- ft.com -->
<g id="node5" class="node">
<title>ft.com</title>
<ellipse fill="none" stroke="#000000" cx="32.9452" cy="-18" rx="32.8906" ry="18"/>
<text text-anchor="middle" x="32.9452" y="-13.8" font-family="Times,serif" font-size="14.00" fill="#000000">ft.com</text>
</g>
<!-- o&#45;colors&#45;&gt;ft.com -->
<g id="edge7" class="edge">
<title>o&#45;colors&#45;&gt;ft.com</title>
<path fill="none" stroke="#000000" d="M68.8683,-312C44.1095,-312 16.0642,-312 16.0642,-312 16.0642,-312 16.0642,-43.8067 16.0642,-43.8067"/>
<polygon fill="#000000" stroke="#000000" points="19.5643,-43.8067 16.0642,-33.8067 12.5643,-43.8068 19.5643,-43.8067"/>
</g>
<!-- ft app -->
<g id="node6" class="node">
<title>ft app</title>
<ellipse fill="none" stroke="#000000" cx="259.9452" cy="-18" rx="30.4765" ry="18"/>
<text text-anchor="middle" x="259.9452" y="-13.8" font-family="Times,serif" font-size="14.00" fill="#000000">ft app</text>
</g>
<!-- o&#45;colors&#45;&gt;ft app -->
<g id="edge11" class="edge">
<title>o&#45;colors&#45;&gt;ft app</title>
<path fill="none" stroke="#000000" d="M139.926,-315C190.0506,-315 277.9404,-315 277.9404,-315 277.9404,-315 277.9404,-42.7283 277.9404,-42.7283"/>
<polygon fill="#000000" stroke="#000000" points="281.4405,-42.7282 277.9404,-32.7283 274.4405,-42.7283 281.4405,-42.7282"/>
</g>
<!-- an internal tool -->
<g id="node7" class="node">
<title>an internal tool</title>
<ellipse fill="none" stroke="#000000" cx="147.9452" cy="-18" rx="63.7855" ry="18"/>
<text text-anchor="middle" x="147.9452" y="-13.8" font-family="Times,serif" font-size="14.00" fill="#000000">an internal tool</text>
</g>
<!-- o&#45;colors&#45;&gt;an internal tool -->
<g id="edge15" class="edge">
<title>o&#45;colors&#45;&gt;an internal tool</title>
<path fill="none" stroke="#000000" d="M69.0368,-300C50.5826,-300 32.1283,-300 32.1283,-300 32.1283,-300 32.1283,-198 32.1283,-198 32.1283,-198 101.5843,-198 101.5843,-198 101.5843,-198 101.5843,-40.3721 101.5843,-40.3721"/>
<polygon fill="#000000" stroke="#000000" points="105.0844,-40.3721 101.5843,-30.3721 98.0844,-40.3722 105.0844,-40.3721"/>
</g>
<!-- o&#45;typography&#45;&gt;o&#45;buttons -->
<g id="edge3" class="edge">
<title>o&#45;typography&#45;&gt;o&#45;buttons</title>
<path fill="none" stroke="#000000" d="M158.5636,-226.5659C158.5636,-226.5659 158.5636,-180.8444 158.5636,-180.8444"/>
<polygon fill="#000000" stroke="#000000" points="162.0637,-180.8444 158.5636,-170.8444 155.0637,-180.8444 162.0637,-180.8444"/>
</g>
<!-- o&#45;typography&#45;&gt;o&#45;table -->
<g id="edge5" class="edge">
<title>o&#45;typography&#45;&gt;o&#45;table</title>
<path fill="none" stroke="#000000" d="M136.1476,-218.4379C136.1476,-182.3474 136.1476,-96 136.1476,-96 136.1476,-96 154.0553,-96 154.0553,-96"/>
<polygon fill="#000000" stroke="#000000" points="154.0553,-99.5001 164.0553,-96 154.0552,-92.5001 154.0553,-99.5001"/>
</g>
<!-- o&#45;typography&#45;&gt;ft.com -->
<g id="edge8" class="edge">
<title>o&#45;typography&#45;&gt;ft.com</title>
<path fill="none" stroke="#000000" d="M52.617,-226.8133C52.617,-226.8133 52.617,-42.5236 52.617,-42.5236"/>
<polygon fill="#000000" stroke="#000000" points="56.1171,-42.5235 52.617,-32.5236 49.1171,-42.5236 56.1171,-42.5235"/>
</g>
<!-- o&#45;typography&#45;&gt;ft app -->
<g id="edge12" class="edge">
<title>o&#45;typography&#45;&gt;ft app</title>
<path fill="none" stroke="#000000" d="M164.0471,-234C205.1386,-234 252.9543,-234 252.9543,-234 252.9543,-234 252.9543,-45.6762 252.9543,-45.6762"/>
<polygon fill="#000000" stroke="#000000" points="256.4544,-45.6762 252.9543,-35.6762 249.4544,-45.6762 256.4544,-45.6762"/>
</g>
<!-- o&#45;typography&#45;&gt;an internal tool -->
<g id="edge16" class="edge">
<title>o&#45;typography&#45;&gt;an internal tool</title>
<path fill="none" stroke="#000000" d="M118.866,-216.3238C118.866,-216.3238 118.866,-44.1357 118.866,-44.1357"/>
<polygon fill="#000000" stroke="#000000" points="122.3661,-44.1357 118.866,-34.1357 115.3661,-44.1358 122.3661,-44.1357"/>
</g>
<!-- o&#45;buttons&#45;&gt;o&#45;table -->
<g id="edge6" class="edge">
<title>o&#45;buttons&#45;&gt;o&#45;table</title>
<path fill="none" stroke="#000000" d="M196.9452,-143.8314C196.9452,-143.8314 196.9452,-118.4133 196.9452,-118.4133"/>
<polygon fill="#000000" stroke="#000000" points="200.4453,-118.4132 196.9452,-108.4133 193.4453,-118.4133 200.4453,-118.4132"/>
</g>
<!-- o&#45;buttons&#45;&gt;ft.com -->
<g id="edge9" class="edge">
<title>o&#45;buttons&#45;&gt;ft.com</title>
<path fill="none" stroke="#000000" d="M153.0627,-162C112.0335,-162 57.0415,-162 57.0415,-162 57.0415,-162 57.0415,-40.2774 57.0415,-40.2774"/>
<polygon fill="#000000" stroke="#000000" points="60.5416,-40.2773 57.0415,-30.2774 53.5416,-40.2774 60.5416,-40.2773"/>
</g>
<!-- o&#45;buttons&#45;&gt;ft app -->
<g id="edge13" class="edge">
<title>o&#45;buttons&#45;&gt;ft app</title>
<path fill="none" stroke="#000000" d="M237.5091,-155.4384C237.5091,-155.4384 237.5091,-40.361 237.5091,-40.361"/>
<polygon fill="#000000" stroke="#000000" points="241.0092,-40.361 237.5091,-30.361 234.0092,-40.3611 241.0092,-40.361"/>
</g>
<!-- o&#45;buttons&#45;&gt;an internal tool -->
<g id="edge17" class="edge">
<title>o&#45;buttons&#45;&gt;an internal tool</title>
<path fill="none" stroke="#000000" d="M157.8575,-153.8453C157.8575,-153.8453 157.8575,-45.9239 157.8575,-45.9239"/>
<polygon fill="#000000" stroke="#000000" points="161.3576,-45.9238 157.8575,-35.9239 154.3576,-45.9239 161.3576,-45.9238"/>
</g>
<!-- o&#45;table&#45;&gt;ft.com -->
<g id="edge10" class="edge">
<title>o&#45;table&#45;&gt;ft.com</title>
<path fill="none" stroke="#000000" d="M164.1495,-84C124.054,-84 61.466,-84 61.466,-84 61.466,-84 61.466,-37.177 61.466,-37.177"/>
<polygon fill="#000000" stroke="#000000" points="64.9661,-37.177 61.466,-27.177 57.9661,-37.1771 64.9661,-37.177"/>
</g>
<!-- o&#45;table&#45;&gt;ft app -->
<g id="edge14" class="edge">
<title>o&#45;table&#45;&gt;ft app</title>
<path fill="none" stroke="#000000" d="M229.6398,-84C232.6263,-84 234.5569,-84 234.5569,-84 234.5569,-84 234.5569,-38.024 234.5569,-38.024"/>
<polygon fill="#000000" stroke="#000000" points="238.057,-38.0239 234.5569,-28.024 231.057,-38.024 238.057,-38.0239"/>
</g>
<!-- o&#45;table&#45;&gt;an internal tool -->
<g id="edge18" class="edge">
<title>o&#45;table&#45;&gt;an internal tool</title>
<path fill="none" stroke="#000000" d="M186.9368,-72.5708C186.9368,-72.5708 186.9368,-42.3649 186.9368,-42.3649"/>
<polygon fill="#000000" stroke="#000000" points="190.4369,-42.3648 186.9368,-32.3649 183.4369,-42.3649 190.4369,-42.3648"/>
</g>
</g>
</svg>
